HIERARCHY
ROOT Hips
{
     OFFSET 1.88212 96.90440 -13.34250
     CHANNELS 6 Xposition Yposition Zposition Zrotation Xrotation Yrotation
     JOINT Spine
     {
          OFFSET 0.00000 11.89050 0.00000
          CHANNELS 3 Zrotation Xrotation Yrotation
          JOINT Spine1
          {
               OFFSET -0.00000 25.65740 0.12766
               CHANNELS 3 Zrotation Xrotation Yrotation
               JOINT HEad
               {
                    OFFSET 0.00000 8.73416 0.01134
                    CHANNELS 3 Zrotation Xrotation Yrotation
                    End Site
                    {
                         OFFSET -0.29000 12.77420 2.51395
                    }
               }
               JOINT LeftShoulder1
               {
                    OFFSET 8.99000 -0.36225 -0.22000
                    CHANNELS 3 Zrotation Xrotation Yrotation
                    JOINT LeftArm
                    {
                         OFFSET 10.28270 -0.00338 0.32212
                         CHANNELS 3 Zrotation Xrotation Yrotation
                         JOINT LeftForeArm
                         {
                              OFFSET 32.76690 0.09914 -1.42434
                              CHANNELS 3 Zrotation Xrotation Yrotation
                              JOINT LeftHand
                              {
                                   OFFSET 27.56430 0.08536 1.02216
                                   CHANNELS 3 Zrotation Xrotation Yrotation
                                   End Site
                                   {
                                        OFFSET 16.74430 -0.60000 1.50291
                                   }
                              }
                         }
                    }
               }
               JOINT RightShoulder
               {
                    OFFSET -8.99000 -0.36225 -0.22000
                    CHANNELS 3 Zrotation Xrotation Yrotation
                    JOINT RightArm
                    {
                         OFFSET -10.28270 -0.00338 0.32212
                         CHANNELS 3 Zrotation Xrotation Yrotation
                         JOINT RightForeArm
                         {
                              OFFSET -32.89710 0.09914 -1.42434
                              CHANNELS 3 Zrotation Xrotation Yrotation
                              JOINT RightHand
                              {
                                   OFFSET -27.49210 0.08536 1.02216
                                   CHANNELS 3 Zrotation Xrotation Yrotation
                                   End Site
                                   {
                                        OFFSET -16.63120 -0.60000 1.50291
                                   }
                              }
                         }
                    }
               }
          }
     }
     JOINT LeftUpLeg
     {
          OFFSET 8.94580 -8.66707 0.10165
          CHANNELS 3 Zrotation Xrotation Yrotation
          JOINT LeftLeg
          {
               OFFSET 0.00000 -44.42270 1.37270
               CHANNELS 3 Zrotation Xrotation Yrotation
               JOINT LeftFoot
               {
                    OFFSET -0.25355 -42.09240 -1.46059
                    CHANNELS 3 Zrotation Xrotation Yrotation
                    JOINT LeftToes
                    {
                         OFFSET -0.04000 -4.41509 8.49910
                         CHANNELS 3 Zrotation Xrotation Yrotation
                         End Site
                         {
                              OFFSET 0.08000 -0.04745 9.77979
                         }
                    }
               }
          }
     }
     JOINT RightUpLeg
     {
          OFFSET -8.94580 -8.66707 0.10165
          CHANNELS 3 Zrotation Xrotation Yrotation
          JOINT RightLeg
          {
               OFFSET 0.00000 -44.42270 1.37270
               CHANNELS 3 Zrotation Xrotation Yrotation
               JOINT RightFoot
               {
                    OFFSET 0.25355 -42.09240 -1.46059
                    CHANNELS 3 Zrotation Xrotation Yrotation
                    JOINT RightToes
                    {
                         OFFSET 0.04000 -4.41509 8.49910
                         CHANNELS 3 Zrotation Xrotation Yrotation
                         End Site
                         {
                              OFFSET -0.08000 -0.13745 9.77979
                         }
                    }
               }
          }
     }
}
MOTION
Frames: 17
Frame Time: 0.01667
29.85268 93.32388 -30.91626 5.77164 12.59562 153.48479 -9.66477 27.68341 -0.22415 -0.00011 0.00570 -0.01021 -11.28902 21.50841 16.39114 -2.42448 9.08971 1.60036 -143.45781 -65.85357 -119.61692 -23.24507 61.26834 -93.02399 15.60220 7.70964 -6.77666 16.17594 10.41969 0.87749 79.62721 1.22218 73.61058 -1.73664 25.58503 99.09432 16.38553 11.95800 10.61474 9.99196 1.15907 -15.84758 -22.73721 -0.52467 64.78321 5.23236 0.01241 -0.00824 6.86106 -16.26029 -59.65283 -34.59249 12.30765 11.16180 46.17689 14.06218 -32.28258 -27.84839 0.05808 -0.03322 8.24634 -29.32333 7.06204 
29.37477 93.54090 -31.21610 6.12730 12.42404 153.62537 -9.39957 27.81361 0.38857 0.00008 0.00575 -0.00939 -9.91284 20.51553 15.69059 -1.95841 9.11115 1.04900 -142.83511 -65.26503 -119.14803 -22.60111 61.28474 -93.59399 15.74984 7.92637 -6.56493 16.56519 10.22721 0.17165 80.31068 0.75433 73.79545 -2.31348 25.92287 100.16807 16.44359 11.82082 10.30970 10.26229 1.28164 -14.20448 -22.90182 0.29372 63.51526 2.98815 0.01053 -0.00705 8.81397 -16.79161 -60.23664 -34.49004 9.90004 11.48207 47.67960 16.00183 -33.16816 -26.59625 -0.00474 -0.01028 6.16183 -29.23709 6.33381 
28.94075 93.77058 -31.42891 6.49586 12.19871 153.76472 -9.08743 27.87769 0.90880 0.00028 0.00583 -0.00852 -8.77649 19.65373 15.10323 -1.54079 9.12110 0.64624 -142.25653 -64.60493 -118.73978 -21.93190 61.31363 -94.19730 15.88924 8.12839 -6.30477 16.90618 10.07454 -0.37257 80.95625 0.29883 74.04996 -2.89289 26.20053 101.18953 16.48046 11.70911 10.02861 10.58929 1.28005 -12.69429 -22.97016 1.16447 62.25942 0.67535 0.00832 -0.00526 10.80160 -17.15394 -60.67640 -34.31713 7.64600 11.82402 48.69912 17.45047 -34.12570 -27.54079 0.02117 0.00037 6.73434 -28.90295 6.08330 
28.54171 94.00895 -31.55668 6.86109 11.92688 153.91246 -8.73415 27.88167 1.34011 0.00052 0.00597 -0.00759 -7.85916 18.92566 14.60486 -1.16700 9.11682 0.36601 -141.73232 -63.87902 -118.38079 -21.23279 61.35451 -94.83048 16.01837 8.28038 -6.04015 17.18974 9.95316 -0.76011 81.57229 -0.15734 74.37224 -3.47697 26.41949 102.15341 16.50591 11.61767 9.75361 10.93965 1.15229 -11.32073 -22.93661 2.03910 61.02641 -1.66573 0.00593 -0.00320 12.82903 -17.35013 -60.99067 -34.06692 5.62450 12.18850 49.37538 18.61943 -35.05128 -27.11206 0.01452 -0.00105 6.26706 -28.42216 6.23058 
28.17766 94.25174 -31.60863 7.20939 11.61856 154.07962 -8.34362 27.83426 1.68377 0.00075 0.00617 -0.00663 -7.14243 18.32962 14.17573 -0.83689 9.09732 0.18836 -141.25832 -63.09171 -118.04991 -20.50580 61.40867 -95.48412 16.15025 8.40588 -5.74139 17.41060 9.85548 -1.00748 82.16371 -0.61677 74.75987 -4.06653 26.58357 103.05182 16.52029 11.53998 9.49990 11.28670 0.91283 -10.09153 -22.80256 2.87995 59.82198 -4.01108 0.00353 -0.00117 14.89620 -17.39069 -61.19096 -33.74256 3.87806 12.57698 49.78093 19.61654 -35.86739 -27.10166 0.01788 0.00275 6.45991 -27.90297 6.52504 
27.85417 94.49270 -31.59763 7.53031 11.28579 154.27730 -7.91986 27.74479 1.94090 0.00088 0.00636 -0.00567 -6.60878 17.86210 13.80025 -0.55480 9.06157 0.09673 -140.82216 -62.25264 -117.72327 -19.76021 61.47875 -96.14517 16.28814 8.48791 -5.43910 17.56734 9.77335 -1.13761 82.73145 -1.07396 75.20428 -4.66219 26.69915 103.87725 16.52754 11.46694 9.26352 11.61216 0.58812 -9.01589 -22.57374 3.66222 58.64853 -6.35065 0.00121 0.00059 16.99397 -17.29509 -61.28876 -33.34959 2.42152 12.99077 49.98563 20.47191 -36.54403 -26.67152 0.01627 0.00292 6.38706 -27.33112 6.95092 
27.57828 94.72363 -31.53633 7.81643 10.94138 154.51440 -7.46885 27.62144 2.11430 0.00090 0.00650 -0.00480 -6.24098 17.51913 13.46638 -0.32667 9.00812 0.07305 -140.41876 -61.38063 -117.38733 -19.01093 61.56797 -96.79839 16.43595 8.54673 -5.11890 17.65695 9.69871 -1.17115 83.27717 -1.52154 75.68914 -5.26444 26.77370 104.62534 16.53374 11.39269 9.05459 11.90518 0.20872 -8.10097 -22.25858 4.37289 57.50770 -8.68228 -0.00092 0.00201 19.10522 -17.07933 -61.29883 -32.89909 1.25266 13.43106 50.03626 21.18453 -37.06442 -26.31089 0.01662 0.00439 6.46255 -26.71628 7.39004 
27.35593 94.93604 -31.43524 8.06262 10.59794 154.79582 -6.99994 27.47063 2.20964 0.00078 0.00659 -0.00413 -6.02187 17.29626 13.16581 -0.15735 8.93793 0.09547 -140.05070 -60.50031 -117.03987 -18.26628 61.67420 -97.43658 16.58360 8.58684 -4.80413 17.67085 9.62658 -1.12397 83.80678 -1.95226 76.19482 -5.87269 26.81368 105.29446 16.54450 11.31295 8.87021 12.16012 -0.19725 -7.34884 -21.86744 5.00755 56.40124 -11.00565 -0.00284 0.00308 21.20926 -16.75234 -61.23646 -32.40457 0.36027 13.89892 49.97152 21.73180 -37.43098 -25.84912 0.01606 0.00504 6.45994 -26.09136 7.81989 
27.19115 95.12245 -31.30268 8.26537 10.26712 155.12178 -6.52614 27.29769 2.23542 0.00054 0.00666 -0.00368 -5.93390 17.18809 12.89417 -0.04940 8.85677 0.14072 -139.71902 -59.63438 -116.68359 -17.51603 61.78607 -98.06832 16.72087 8.63346 -4.48988 17.59991 9.55698 -1.01349 84.32697 -2.35475 76.70439 -6.48486 26.82364 105.88594 16.55593 11.22861 8.71601 12.37446 -0.60752 -6.75567 -21.41243 5.56666 55.33191 -13.31818 -0.00451 0.00382 23.28608 -16.32868 -61.11598 -31.88187 -0.26978 14.39486 49.81361 22.08401 -37.65512 -25.42911 0.01625 0.00549 6.48768 -25.51575 8.19918 
27.08711 95.27208 -31.14489 8.42134 9.95977 155.48859 -6.06569 27.10782 2.20279 0.00013 0.00673 -0.00348 -5.95838 17.18779 12.65030 -0.01210 8.77381 0.18892 -139.41788 -58.80024 -116.32496 -16.73536 61.89232 -98.71512 16.84220 8.68213 -4.18330 17.43977 9.49291 -0.86520 84.84217 -2.71066 77.20498 -7.09803 26.80914 106.40466 16.57221 11.14568 8.58482 12.54715 -1.00754 -6.31335 -20.90878 6.05512 54.30566 -15.61462 -0.00594 0.00428 25.31898 -15.83489 -60.95069 -31.34640 -0.65795 14.91621 49.57417 22.22557 -37.76385 -25.00430 0.01607 0.00533 6.48299 -25.03844 8.51866 
27.04400 95.38149 -30.96769 8.52834 9.68510 155.89012 -5.63637 26.90611 2.12423 -0.00031 0.00679 -0.00337 -6.07634 17.28797 12.43386 -0.03774 8.69414 0.23641 -139.14165 -58.00545 -115.95579 -15.90962 61.98775 -99.39351 16.93383 8.74072 -3.89075 17.21927 9.43506 -0.70575 85.33216 -3.00831 77.68288 -7.70577 26.77706 106.85944 16.56729 11.06042 8.47981 12.67863 -1.38827 -6.01220 -20.37427 6.47816 53.33261 -17.88615 -0.00705 0.00446 27.29499 -15.30558 -60.75218 -30.81217 -0.82381 15.45824 49.25257 22.14433 -37.78804 -24.60213 0.01583 0.00474 6.45895 -24.68003 8.75950 
27.06045 95.45244 -30.77583 8.58634 9.45048 156.31863 -5.25234 26.69671 2.01394 -0.00069 0.00672 -0.00322 -6.26943 17.48197 12.24278 -0.11289 8.61319 0.29647 -138.87422 -57.25384 -115.54978 -15.05194 62.07617 -100.10027 16.99441 8.78860 -3.61538 16.99383 9.37583 -0.56369 85.75631 -3.24402 78.11589 -8.29768 26.73677 107.26224 16.54885 10.97674 8.39104 12.77141 -1.74325 -5.84185 -19.82806 6.84000 52.42585 -20.12158 -0.00779 0.00444 29.20765 -14.77712 -60.52941 -30.29009 -0.78566 16.01531 48.84434 21.83483 -37.75912 -24.20872 0.01523 0.00387 6.38762 -24.42623 8.91435 
27.13496 95.48559 -30.57168 8.59707 9.26212 156.76491 -4.92517 26.48217 1.88893 -0.00103 0.00648 -0.00292 -6.52061 17.76430 12.07253 -0.22915 8.52092 0.38807 -138.59225 -56.55077 -115.07473 -14.19718 62.16817 -100.81679 17.02680 8.82104 -3.35478 16.82488 9.30258 -0.46878 86.06779 -3.42007 78.47490 -8.86184 26.69722 107.62726 16.51813 10.89796 8.31697 12.83003 -2.06782 -5.79063 -19.28915 7.14698 51.59911 -22.31049 -0.00814 0.00427 31.05625 -14.27926 -60.28761 -29.78893 -0.56185 16.58329 48.34938 21.30149 -37.70564 -23.83233 0.01449 0.00299 6.26863 -24.24087 8.97460 
27.26601 95.47989 -30.35555 8.56319 9.12520 157.21872 -4.66537 26.26448 1.76722 -0.00136 0.00617 -0.00260 -6.81451 18.12836 11.91875 -0.38212 8.41583 0.51306 -138.29465 -55.90621 -114.52843 -13.38074 62.27434 -101.52258 17.04088 8.83273 -3.10880 16.74283 9.21096 -0.44001 86.24597 -3.54337 78.73850 -9.39109 26.66274 107.96877 16.48899 10.83268 8.24904 12.86038 -2.35981 -5.84522 -18.77471 7.40995 50.86460 -24.44585 -0.00816 0.00401 32.84333 -13.82916 -60.02869 -29.31658 -0.17213 17.16122 47.77788 20.55896 -37.65259 -23.48086 0.01367 0.00229 6.10539 -24.09849 8.93883 
27.45190 95.40900 -30.12557 8.47308 9.04582 157.66856 -4.49777 26.04299 1.66620 -0.00172 0.00602 -0.00252 -7.13825 18.56341 11.78118 -0.56130 8.31464 0.64248 -138.02316 -55.33309 -113.96143 -12.62599 62.39629 -102.19778 17.04393 8.83221 -2.88233 16.71777 9.11450 -0.47361 86.32547 -3.62186 78.90834 -9.88694 26.63148 108.29659 16.46243 10.78371 8.18521 12.85662 -2.62575 -5.98737 -18.30284 7.64572 50.23302 -26.52477 -0.00796 0.00365 34.57437 -13.43495 -59.75647 -28.75331 0.43097 17.75602 46.74218 19.21651 -37.44518 -23.08880 0.00714 0.00170 5.80783 -23.63035 8.85398 
27.69071 95.24770 -29.87782 8.31640 9.02631 158.10310 -4.44288 25.81874 1.59584 -0.00211 0.00616 -0.00287 -7.48225 19.05260 11.66564 -0.74602 8.24415 0.72968 -137.84221 -54.84279 -113.45426 -11.94574 62.52393 -102.81878 17.04226 8.82303 -2.68702 16.67714 9.03836 -0.54310 86.38182 -3.66234 79.00712 -10.35767 26.59829 108.61259 16.44080 10.74863 8.11851 12.81680 -2.87882 -6.19810 -17.89328 7.87380 49.71349 -28.54939 -0.00768 0.00319 36.26176 -13.10626 -59.48246 -28.08004 1.26175 18.36716 45.28061 17.44150 -37.15377 -22.64647 0.00606 -0.00075 5.38841 -23.01259 8.73631 
27.98054 94.99979 -29.60852 8.09282 9.06443 158.51338 -4.50658 25.59666 1.55632 -0.00249 0.00653 -0.00359 -7.84063 19.57400 11.58212 -0.91389 8.22114 0.74100 -137.79321 -54.44184 -113.06558 -11.34724 62.64268 -103.36166 17.03549 8.81426 -2.53517 16.56138 9.00192 -0.61436 86.47860 -3.67016 79.05908 -10.81151 26.55756 108.91264 16.41720 10.71865 8.04619 12.74894 -3.13106 -6.46082 -17.56293 8.11046 49.31222 -30.52768 -0.00732 0.00268 37.92692 -12.86410 -59.22477 -27.34748 2.29415 18.98647 43.53487 15.43001 -36.85032 -22.14183 0.00486 -0.00301 4.83703 -22.35157 8.62328 
